<svg xmlns="http://www.w3.org/2000/svg" id="Layer_2" data-name="Layer 2" viewBox="0 0 1103.3 200"><defs><style>      .cls-1 {        fill: #042431;      }    </style></defs><g id="Layer_1-2" data-name="Layer 1"><g><path class="cls-1" d="M100.9,200h-42.26V35.43H0V0h166.72l26.37,35.43h-92.19v164.57Z"/><path class="cls-1" d="M366.46,130.69v-61.37c0-21.73,7.12-38.72,21.35-50.96,14.23-12.24,33.77-18.36,58.6-18.36s44.37,6.12,58.6,18.36c14.23,12.24,21.35,29.23,21.35,50.96v61.37c0,21.74-7.12,38.72-21.35,50.96-14.24,12.24-33.77,18.36-58.6,18.36s-44.37-6.12-58.6-18.36c-14.23-12.24-21.35-29.22-21.35-50.96ZM485.67,132.6v-65.21c0-9.31-3.44-16.94-10.32-22.88-6.88-5.93-16.52-8.9-28.94-8.9s-22.07,2.97-28.94,8.9c-6.88,5.94-10.31,13.56-10.31,22.88v65.21c0,9.31,3.44,16.94,10.31,22.88,6.88,5.94,16.52,8.9,28.94,8.9s22.07-2.97,28.94-8.9c6.88-5.93,10.32-13.56,10.32-22.88Z"/><path class="cls-1" d="M639.25,200h-72.79V0h72.79c25.02,0,44.6,6.05,58.74,18.14,14.13,12.1,21.2,29,21.2,50.71v62.29c0,21.71-7.07,38.62-21.2,50.71-14.14,12.1-33.72,18.14-58.74,18.14ZM607.16,35.43v129.14h32.1c12.22,0,21.82-3.04,28.8-9.14,6.97-6.09,10.46-13.81,10.46-23.14v-64.57c0-9.33-3.49-17.05-10.46-23.14-6.98-6.09-16.58-9.14-28.8-9.14h-32.1Z"/><path class="cls-1" d="M829.25,200h-72.79V0h72.79c25.02,0,44.6,6.05,58.74,18.14,14.13,12.1,21.2,29,21.2,50.71v62.29c0,21.71-7.07,38.62-21.2,50.71-14.14,12.1-33.72,18.14-58.74,18.14ZM797.16,35.43v129.14h32.1c12.22,0,21.82-3.04,28.8-9.14,6.97-6.09,10.46-13.81,10.46-23.14v-64.57c0-9.33-3.49-17.05-10.46-23.14-6.98-6.09-16.58-9.14-28.8-9.14h-32.1Z"/><path class="cls-1" d="M1024.98,200c-22.74,0-41.55-5.75-56.45-17.26-14.71-11.51-22.07-27.85-22.07-49.04h40.69c0,11.14,4.01,19.09,12.04,23.84,8.21,4.57,17.57,6.85,28.08,6.85s18.39-1.92,24.21-5.75c5.82-3.84,8.74-8.86,8.74-15.07,0-5.84-3.25-10.5-9.74-13.97-3.06-1.82-6.88-3.56-11.46-5.2-2.48-1.28-4.87-2.19-7.16-2.74-.57-.18-3.29-1.14-8.17-2.88-4.87-1.73-8.27-2.96-10.17-3.7l-8.31-3.01c-14.9-5.48-26.93-11.51-36.11-18.08-11.66-8.58-17.48-20.64-17.48-36.16,0-17.53,6.69-31.55,20.06-42.05,13.37-10.5,31.42-15.75,54.16-15.75s42.22,5.39,55.59,16.16c13.37,10.78,20.06,26.94,20.06,48.49h-40.69c0-9.86-3.2-17.17-9.6-21.92-6.4-4.75-15.04-7.12-25.93-7.12-10.13,0-18.1,1.78-23.93,5.34-5.83,3.56-8.74,8.45-8.74,14.66s2.58,10.59,7.73,13.7c3.25,1.83,6.21,3.29,8.88,4.38.57.18,1.24.41,2.01.68.76.28,1.38.55,1.86.82.48.27.9.41,1.29.41l12.04,4.11,8.02,2.74c5.16,1.65,11.08,3.75,17.77,6.3l15.76,6.58c6.3,2.74,11.17,5.48,14.61,8.22,14.71,10.78,21.59,23.47,20.63,38.08,0,17.72-6.88,31.87-20.63,42.47-13.75,10.59-32.95,15.89-57.6,15.89Z"/><g><polygon class="cls-1" points="333.93 11.15 333.93 0 293.45 0 250 64.48 209.22 0 166.06 0 166.06 13.47 223.8 96.29 160.11 186.53 160.11 200 197.43 200 333.93 11.15"/><polygon class="cls-1" points="266.5 157.4 297.02 200 339.88 200 339.88 186.53 292.32 121.56 266.5 157.4"/></g></g></g></svg>