<?xml version="1.0" encoding="UTF-8"?>
<svg id="White" xmlns="http://www.w3.org/2000/svg" viewBox="0 0 1365.87 1149.87">
  <defs>
    <style>
      @font-face {
        font-family: Inter, ui-sans-serif, system-ui;
        src: url('assets/fonts/Inter-400.woff2') format('woff2');
        font-weight: 400;
      }

      .cls-1, .cls-2 {
        fill: #30333A;
      }

      .cls-2 {
        font-family: Inter, ui-sans-serif, system-ui;
        font-size: 247px;
        font-weight: 400; /* Ensure the weight matches the font file */
        letter-spacing: -.05em;
        text-anchor: middle;
      }
    </style>
  </defs>
  <path class="cls-1" d="m926.88,383.9c-.01-.25-.02-.51-.03-.76,0-.11-.01-.25-.02-.41-.03-.66-.07-1.32-.13-1.97-.01-.2-.02-.4-.04-.59-.05-.67-.11-1.34-.18-2.03-.02-.21-.04-.43-.07-.66-.07-.71-.15-1.41-.24-2.08-.1-.74-.2-1.46-.29-2.1-.14-.92-.28-1.84-.44-2.7-.1-.59-.21-1.17-.33-1.74-.07-.34-.13-.69-.2-1.04v-.35s-.2-.59-.2-.59c-.24-1.11-.52-2.29-.86-3.63-.03-.1-.05-.2-.09-.31-.17-.67-.34-1.35-.53-1.99-.19-.7-.41-1.4-.62-2.07-.14-.5-.3-.98-.46-1.47-.04-.17-.1-.34-.16-.51-.14-.42-.27-.84-.4-1.2-.48-1.42-1.02-2.89-1.65-4.47-.27-.68-.55-1.35-.82-1.99-.23-.54-.46-1.08-.7-1.62-.22-.51-.45-1.02-.68-1.51-.46-.98-.95-2-1.45-2.99-.21-.43-.43-.84-.64-1.26-.13-.25-.26-.5-.4-.75-.18-.33-.35-.66-.52-.97-.29-.55-.6-1.09-.91-1.63-.21-.36-.42-.72-.63-1.08-.05-.1-.12-.2-.17-.31-.87-1.45-1.76-2.87-2.67-4.24l-.88-1.31c-.62-.92-1.22-1.78-1.82-2.57-.09-.12-.17-.24-.26-.36-.29-.39-.58-.78-.88-1.16-.55-.74-1.16-1.53-1.93-2.48l-1.21-1.46c-.71-.84-1.44-1.66-2.17-2.49l-.56-.61c-.15-.17-.31-.33-.46-.51l-1.37-1.45c-.37-.38-.75-.75-1.08-1.09-.39-.39-.78-.78-1.17-1.17-.41-.4-.82-.79-1.23-1.17-.8-.76-1.62-1.49-2.46-2.25-.4-.35-.8-.69-1.19-1.03l-.11-.09c-.84-.7-1.69-1.42-2.57-2.11-.43-.35-.86-.68-1.28-1-.46-.36-.91-.7-1.32-1-.47-.36-.95-.71-1.37-1-.44-.33-.9-.65-1.36-.97-1.4-.98-2.83-1.92-4.22-2.78-1.43-.89-2.89-1.74-4.36-2.56-.5-.27-.99-.54-1.46-.79-.82-.44-1.66-.88-2.48-1.28-.83-.41-1.68-.83-2.54-1.22-.53-.24-1.06-.49-1.59-.72-1.47-.65-2.84-1.22-4.18-1.73-.53-.22-1.06-.42-1.64-.63l-.47-.17c-.5-.19-.99-.36-1.43-.5-.37-.14-.73-.27-1.11-.38-1.5-.5-3.03-.97-4.53-1.39-.53-.15-1.05-.3-1.57-.43-.34-.1-.69-.19-1.05-.27-1.28-.32-2.58-.62-3.86-.89-.61-.13-1.22-.25-1.78-.36-.64-.12-1.29-.24-1.95-.35-.41-.07-.8-.14-1.21-.19-.2-.04-.41-.08-.62-.11-.66-.1-1.32-.19-1.98-.27-.19-.03-.38-.06-.57-.08-.76-.1-1.54-.19-2.26-.26-.77-.08-1.55-.15-2.33-.2l-.33-.04c-.82-.05-1.64-.11-2.42-.15-.87-.04-1.76-.08-2.59-.1-1.74-.05-3.55-.05-5.17,0-.2.01-.4.01-.61.02-.7-2.47-1.52-4.92-2.46-7.34-4.46-11.53-11.58-22.48-21-32.23-.66-.68-1.33-1.35-2-2.02-4.7-4.62-9.95-8.97-15.6-12.95v-.05l-2.65-1.77c-.18-.12-.36-.23-.53-.35l-.96-.64h-.02c-10.31-6.69-21.68-12.16-33.83-16.29-14.69-5.01-30.51-8.08-47-9.07-3.77-.22-7.63-.34-11.47-.34-37.21,0-72.26,10.7-98.7,30.14-26.99,19.83-41.85,46.38-41.85,74.74,0,8.31,1.3,16.58,3.87,24.62,1.43,4.47,3.28,8.88,5.46,13.12v.95l1.12,1.14c.15.3.32.59.5.91.24.43.48.85.72,1.25.28.49.58.99.87,1.46.28.47.57.94.9,1.44.37.6.75,1.19,1.11,1.73.25.37.49.73.72,1.06.39.57.78,1.13,1.19,1.69l.19.28c.16.23.32.46.5.68.26.37.53.74.82,1.11.38.52.78,1.04,1.15,1.49.53.7,1.08,1.38,1.61,2.02.15.18.29.35.44.53.25.28.49.58.73.86l.06.09c.79.91,1.49,1.7,2.13,2.4.6.68,1.22,1.34,1.89,2.04l.22.22c.18.2.37.39.56.58.6.62,1.21,1.22,1.82,1.83.62.62,1.24,1.22,1.86,1.78,21.74,20.56,52.07,33.97,78.84,45.8,22.26,9.83,43.28,19.12,58.21,30.78,15.73,12.29,23.06,26.05,23.06,43.33,0,24.16-7.52,41.13-22.97,51.86-12.93,8.98-31.16,13.79-54.19,14.29h-163.82c-56.76,0-102.95-46.18-102.95-102.94,0-46.45,31.97-87.66,76.57-99.51,6.43,8.3,16.41,13.22,26.95,13.22s21.13-5.21,27.47-13.9c.45-.61.89-1.24,1.31-1.91,3.49-5.47,5.33-11.8,5.33-18.29,0-5.83-1.49-11.57-4.28-16.54-.3-.55-.63-1.1-1.03-1.74-6.3-9.92-17.07-15.83-28.8-15.83s-22.49,5.92-28.8,15.85c-.28.44-.58.92-.88,1.46-.34.61-.67,1.22-.97,1.84-63.09,14-108.56,70.41-108.56,135.35,0,76.44,62.19,138.64,138.64,138.64h157.95c1.1.01,2.24.01,3.19,0,31.81-.21,57.8-7.17,77.24-20.68,2.08-1.44,4.07-2.95,5.92-4.48,21.48-17.67,32.37-43.48,32.37-76.69,0-28.13-11.49-51.05-35.13-70.08-7.46-6.01-16.3-11.75-27.02-17.54-1.38-.75-2.78-1.49-4.17-2.22l-1.92-.99c-.77-.39-1.53-.78-2.28-1.15-1.27-.64-2.54-1.27-3.77-1.86l-.29-.15c-1.25-.61-2.5-1.21-3.75-1.81l-.14-.06c-1.23-.59-2.47-1.17-3.79-1.78-.12-.06-.23-.11-.39-.18-2.81-1.31-5.85-2.7-9.58-4.38-1.2-.53-2.4-1.06-3.59-1.59-.91-.4-1.82-.81-2.7-1.2-.91-.4-1.83-.81-2.74-1.21l-6.59-2.92c-.71-.32-1.43-.63-2.16-.95-2.46-1.1-4.92-2.2-7.36-3.31-1.62-.73-3.23-1.47-4.81-2.2-1.46-.68-2.92-1.37-4.37-2.05l-1.37-.65c-.44-.22-.89-.42-1.29-.62l-1.14-.56c-1-.49-1.99-.98-2.99-1.47-.86-.43-1.73-.87-2.61-1.33-1.88-.96-3.72-1.92-5.42-2.84l-.41-.22c-.54-.29-1.06-.57-1.59-.86l-.29-.17c-.81-.44-1.61-.9-2.45-1.38-.42-.24-.83-.47-1.2-.68-.62-.37-1.24-.73-1.89-1.12-.57-.33-1.14-.67-1.73-1.05-.88-.53-1.75-1.08-2.59-1.61l-.2-.12c-.61-.39-1.19-.77-1.77-1.16l-.12-.07c-.34-.22-.68-.45-1-.67l-.19-.13s-.02-.01-.02-.01l-.27-.28-.57-.29c-1.1-.76-2.19-1.52-3.3-2.33-.15-.12-.3-.23-.45-.34l-.11-.08c-.4-.29-.78-.58-1.2-.9-.58-.44-1.16-.88-1.72-1.34-.58-.45-1.15-.92-1.72-1.38-.55-.46-1.1-.92-1.62-1.37l-.88-.77c-.23-.2-.46-.4-.65-.58l-.63-.58c-.36-.33-.71-.65-1.06-.98l-.09-.09c-.2-.19-.41-.38-.59-.56l-.37-.37c-.18-.17-.35-.34-.53-.52l-.06-.05c-.19-.2-.37-.39-.57-.58l-.25-.26c-.36-.38-.73-.76-1.08-1.14l-.28-.31c-.36-.38-.72-.77-1.07-1.17-.8-.91-1.58-1.84-2.32-2.76-.3-.38-.61-.77-.93-1.15-.54-.65-1.05-1.29-1.51-1.88l-.3-.44c-3.27-4.63-5.75-9.49-7.35-14.43l-.02-.08c-.19-.54-.35-1.08-.5-1.67l-.46-1.75h-.01c-.84-3.45-1.26-6.94-1.26-10.41,0-16.71,9.7-33.04,27.31-45.99,8.28-6.1,17.96-11.15,28.75-15.01l.4-.15c1.67-.58,3.29-1.12,4.85-1.6,13.72-4.27,28.37-6.43,43.55-6.43,3.5,0,7.05.12,10.55.35l.21.02c9.45.65,18.67,2.17,27.51,4.53,1.79.48,3.55.98,5.3,1.53,12.88,4.01,24.32,9.65,34,16.76,4.21,3.1,7.97,6.38,11.26,9.82,7.82,8.2,12.94,17.28,15.01,26.77.03.09.04.2.06.29.64,2.99.96,6.06.96,9.11,0,4.66-.75,9.34-2.23,13.9l-4.49,13.77,12.87-6.64c.99-.51,1.87-.94,2.73-1.33l.12-.05c.31-.16.63-.29.95-.42l.15-.07c.51-.24,1.03-.46,1.57-.66l.16-.07c.37-.16.75-.3,1.12-.43l.33-.12.08-.04c.34-.13.69-.26,1.05-.38l.4-.13.08-.04c.16-.06.33-.11.5-.17l.95-.31c.19-.06.38-.12.57-.17l.21-.07c.27-.08.54-.17.81-.24l.28-.08c.43-.12.85-.24,1.36-.36l1.61-.4c.06-.02.13-.03.19-.05l2.01-.42c.68-.14,1.31-.25,1.91-.34l.2-.03c.37-.07.73-.12,1.1-.18l.37-.04c.36-.06.71-.11,1.08-.15l.46-.04c.38-.06.77-.09,1.16-.12l.45-.05c.4-.04.8-.06,1.28-.1.4-.03.81-.06,1.23-.07h.17c.47-.04.93-.05,1.37-.06,1.1-.03,2.22-.03,3.31,0h.14c.51.01,1.02.03,1.53.06h.08c.32.02.62.03,1,.07l.42.03c.3,0,.6.04.9.07l.25.02c.26.02.51.04.76.07l.13.02c.43.04.86.1,1.3.15.07.01.14.02.2.02.5.07,1,.13,1.52.22.7.1,1.45.23,2.29.39l.55.24h.62c.13.02.26.05.38.08l.26.06c.3.05.59.13.89.2l.11.03c.35.09.72.16,1.01.24l1.45.39c.26.07.51.15.8.23.73.22,1.42.44,2.14.67l.09.03c.3.1.59.2.94.33,1.02.35,1.85.66,2.61.97l.12.05c.34.13.67.28,1.01.42l.1.04c.42.17.84.36,1.25.55,2.31,1.04,4.59,2.23,6.69,3.49l1.11.69c.26.15.51.31.75.47l.08.06c.67.43,1.37.9,2.09,1.41l.12.08c.28.19.55.39.82.6l.08.05c.48.35.95.71,1.48,1.12.43.32.85.67,1.27,1.01l.08.08c.43.35.87.7,1.29,1.08l.09.07c.42.37.84.74,1.25,1.12l.12.11c.37.33.75.69,1.15,1.08l.11.11c.41.39.8.79,1.2,1.19l.07.07c.38.39.76.79,1.12,1.19l.08.08c.4.44.8.88,1.23,1.37.38.42.73.86,1.09,1.28l.06.07c.31.36.61.73.9,1.11.07.09.14.19.22.28.32.41.64.82.94,1.24.08.11.15.21.23.31.3.4.59.81.86,1.22l.1.14c.25.35.5.7.74,1.06l.05.09c.11.16.21.31.3.46l.06.08c.25.38.5.77.74,1.16l.08.14c.27.42.51.83.79,1.31.35.59.68,1.2,1.02,1.8.27.48.52.98.8,1.54.24.46.47.91.7,1.41l.19.39c.22.46.43.93.65,1.43.23.53.46,1.07.71,1.68.22.54.43,1.08.66,1.69.21.55.4,1.1.59,1.66.41,1.17.74,2.24,1.03,3.28l.03.08c.07.24.13.48.2.72l.02.08c.07.27.14.54.21.81l.04.18c.07.21.12.44.17.67l.19.79c.05.22.1.44.14.67l.04.17c.09.44.19.87.27,1.31l.03.15c.09.51.19,1.02.27,1.53l.06.41c.07.43.14.88.19,1.31l.02.14c.17,1.18.3,2.4.4,3.81.05.5.08.99.1,1.5v.08c.04.5.05.98.07,1.48v.19c.01.54.02,1.08.02,1.62s-.01,1.11-.02,1.67v.1c-.02.51-.03,1.02-.07,1.56-.01.38-.04.76-.07,1.13l-.02.37c-.02.26-.04.51-.06.77l-.04.45c-.02.16-.04.32-.05.48l-.09.31v.52c-.09.81-.19,1.54-.3,2.29-.04.24-.08.49-.12.74l-.02.09c-.17,1.04-.37,2.11-.59,3.15-.29,1.3-.58,2.45-.88,3.54-.1.35-.19.69-.29,1.02l-1.81,8.39h.14l-.08.4,7.54-.32h.28c7.32,0,14.52,1.07,21.42,3.19l3.47,1.07c28.74,10.37,48.51,38.15,48.51,68.79,0,40.33-32.93,73.15-73.4,73.15h-54.56c-.09-.16-.19-.31-.28-.46-3.64-5.73-8.85-10.21-15.07-12.95-4.34-1.92-8.96-2.88-13.73-2.88s-9.51,1-13.9,2.96c-6.14,2.73-11.29,7.18-14.88,12.85-3.48,5.45-5.32,11.78-5.32,18.3s1.84,12.83,5.31,18.27c6.3,9.91,17.06,15.83,28.79,15.83s22.49-5.91,28.8-15.82c.09-.16.19-.32.29-.47h54.55c60.15,0,109.1-48.8,109.1-108.78,0-47.88-31.41-89.99-76.95-103.96Zm-431.45-65.05c10.36,0,18.75,8.4,18.75,18.76s-8.39,18.74-18.75,18.74-18.74-8.39-18.74-18.74,8.39-18.76,18.74-18.76Zm315.67,278.72c-10.36,0-18.75-8.39-18.75-18.75s8.39-18.75,18.75-18.75,18.74,8.4,18.74,18.75-8.39,18.75-18.74,18.75Z"/>
  <text class="cls-2" transform="translate(682.94 869.77)"><tspan x="0" y="0">SYMNIX</tspan></text>
</svg>
